<svg width="24" height="24" viewBox="0 0 24 24" fill="none" xmlns="http://www.w3.org/2000/svg">
    <path fill-rule="evenodd" clip-rule="evenodd" d="M11.4697 3.21967C11.7626 2.92678 12.2374 2.92678 12.5303 3.21967L16.4678 7.15717C16.7607 7.45006 16.7607 7.92494 16.4678 8.21783C16.1749 8.51072 15.7001 8.51072 15.4072 8.21783L12 4.81066L8.59283 8.21783C8.29994 8.51072 7.82506 8.51072 7.53217 8.21783C7.23928 7.92494 7.23928 7.45006 7.53217 7.15717L11.4697 3.21967Z" fill="#5BD424"/>
    <path fill-rule="evenodd" clip-rule="evenodd" d="M12 3C12.4142 3 12.75 3.33579 12.75 3.75V14.25C12.75 14.6642 12.4142 15 12 15C11.5858 15 11.25 14.6642 11.25 14.25V3.75C11.25 3.33579 11.5858 3 12 3Z" fill="#5BD424"/>
    <path fill-rule="evenodd" clip-rule="evenodd" d="M3.75 13.5C4.16421 13.5 4.5 13.8358 4.5 14.25V19.5H19.5V14.25C19.5 13.8358 19.8358 13.5 20.25 13.5C20.6642 13.5 21 13.8358 21 14.25V19.5C21 19.8978 20.842 20.2794 20.5607 20.5607C20.2794 20.842 19.8978 21 19.5 21H4.5C4.10218 21 3.72065 20.842 3.43934 20.5607C3.15804 20.2794 3 19.8978 3 19.5V14.25C3 13.8358 3.33579 13.5 3.75 13.5Z" fill="#5BD424"/>
</svg>